<?xml version="1.0" encoding="UTF-8"?>
<svg version="1.1" xmlns="http://www.w3.org/2000/svg" width="500" height="500">
<path d="M0 0 C165 0 330 0 500 0 C500 165 500 330 500 500 C335 500 170 500 0 500 C0 335 0 170 0 0 Z " fill="#FEF9F9" transform="translate(0,0)"/>
<path d="M0 0 C12.25399864 -0.24160564 24.1712183 -0.20529462 36.25048828 2.06201172 C36.93739746 2.1802832 37.62430664 2.29855469 38.33203125 2.42041016 C51.3146669 4.68955661 64.19225305 8.6898549 75.25048828 16.06201172 C74.60063734 20.77571928 72.73487436 24.63887616 70.68798828 28.87451172 C70.35863281 29.56738281 70.02927734 30.26025391 69.68994141 30.97412109 C68.88176577 32.67246119 68.06680452 34.3675694 67.25048828 36.06201172 C63.52297632 33.92526436 60.19267205 31.5229463 56.81298828 28.87451172 C35.91962398 13.08898464 10.73342909 2.91967399 -15.74951172 5.06201172 C-27.17487632 6.71756545 -39.17797373 9.98213978 -46.59326172 19.31591797 C-49.8641115 24.25534315 -50.52960309 28.19688027 -49.74951172 34.06201172 C-47.65300195 40.51019581 -44.20673332 44.16698187 -38.23388672 47.44091797 C-26.16826206 52.66360979 -13.72007252 53.96814951 -0.74951172 55.06201172 C20.52150745 56.87402125 42.36188706 60.60984448 60.25048828 73.06201172 C61.32298828 73.80451172 62.39548828 74.54701172 63.50048828 75.31201172 C74.15167055 85.96319399 80.0589865 97.64746938 80.68798828 112.62451172 C80.42641957 127.74645261 74.49815754 140.12733942 63.81298828 150.68701172 C43.86340449 167.81697349 16.45405215 170.57136897 -8.74951172 169.06201172 C-25.01429026 167.377089 -41.0494665 161.49587786 -53.74951172 151.06201172 C-54.38115234 150.55412109 -55.01279297 150.04623047 -55.66357422 149.52294922 C-63.75348911 142.28835573 -68.07971934 132.73964366 -68.74951172 122.06201172 C-69.32805908 122.12259766 -69.90660645 122.18318359 -70.50268555 122.24560547 C-91.09072858 124.37589746 -91.09072858 124.37589746 -100.74951172 124.06201172 C-100.73976822 124.78981339 -100.73002472 125.51761505 -100.71998596 126.26747131 C-100.66508347 133.55615053 -100.98647326 140.73406512 -101.58935547 147.99560547 C-101.67576797 149.07656998 -101.76218048 150.15753448 -101.85121155 151.27125549 C-102.03304095 153.53266603 -102.2171821 155.7938918 -102.40356445 158.05493164 C-102.68824668 161.51451954 -102.96453246 164.97470587 -103.23974609 168.43505859 C-103.41829045 170.64278074 -103.59730996 172.85046452 -103.77685547 175.05810547 C-103.8591893 176.08834335 -103.94152313 177.11858124 -104.02635193 178.18003845 C-104.10635941 179.14196609 -104.18636688 180.10389374 -104.26879883 181.0949707 C-104.33763779 181.93591782 -104.40647675 182.77686493 -104.47740173 183.64329529 C-104.76014344 186.1565144 -105.21898467 188.59024383 -105.74951172 191.06201172 C-104.80970459 190.97636963 -103.86989746 190.89072754 -102.90161133 190.80249023 C-79.77870457 188.70681906 -56.79315661 187.04578799 -33.56201172 186.87451172 C-32.44366943 186.86137939 -31.32532715 186.84824707 -30.1730957 186.8347168 C-29.1322583 186.83366943 -28.0914209 186.83262207 -27.01904297 186.83154297 C-26.09712158 186.82743408 -25.1752002 186.8233252 -24.2253418 186.8190918 C-21.55350568 187.08124316 -19.98986132 187.59839787 -17.74951172 189.06201172 C-15.05294067 193.10686829 -15.20724402 196.31508368 -15.74951172 201.06201172 C-16.95803055 203.90203096 -17.83237648 205.435864 -20.37158203 207.16943359 C-23.731826 208.43073256 -27.003867 208.38057567 -30.54638672 208.40576172 C-31.32028244 208.41965942 -32.09417816 208.43355713 -32.89152527 208.44787598 C-34.5590395 208.47763729 -36.2266269 208.50350293 -37.89425659 208.52587891 C-42.30094244 208.58699613 -46.70680738 208.6821253 -51.11279297 208.78076172 C-52.00482925 208.80058105 -52.89686554 208.82040039 -53.81593323 208.84082031 C-62.45285995 209.04933688 -71.06645847 209.50220218 -79.68701172 210.06201172 C-80.9931543 210.14515625 -82.29929688 210.22830078 -83.64501953 210.31396484 C-90.81902506 210.79116822 -90.81902506 210.79116822 -97.96044922 211.60107422 C-102.79495809 212.18918973 -107.57079555 212.36135323 -112.43701172 212.43701172 C-113.360625 212.47439453 -114.28423828 212.51177734 -115.23583984 212.55029297 C-119.58268987 212.60662364 -122.08417777 212.46087901 -125.87060547 210.19091797 C-128.59449226 205.65488196 -128.33237699 201.81039189 -128.12451172 196.62451172 C-128.11033203 195.69574219 -128.09615234 194.76697266 -128.08154297 193.81005859 C-128.00613658 190.27852583 -127.896489 186.88296114 -127.27294922 183.40014648 C-126.55604899 178.82823566 -126.34439758 174.26628194 -126.10107422 169.64794922 C-126.04405838 168.62205185 -125.98704254 167.59615448 -125.92829895 166.53916931 C-125.80539496 164.32726023 -125.68382349 162.11527678 -125.56344604 159.90322876 C-124.57214724 141.71671447 -123.47724123 123.54220949 -122.18701172 105.37451172 C-121.02971531 89.04714323 -120.12090852 72.71823746 -119.39575195 56.3659668 C-118.26814895 31.09706464 -118.26814895 31.09706464 -113.74951172 26.06201172 C-110.15764618 23.65829374 -106.35815149 23.6289886 -102.16748047 23.42919922 C-101.43507645 23.38763702 -100.70267242 23.34607483 -99.94807434 23.30325317 C-97.61142012 23.1729288 -95.2743155 23.0550452 -92.93701172 22.93701172 C-91.37642226 22.85053722 -89.81587457 22.76330543 -88.25537109 22.67529297 C-81.7412959 22.31816649 -75.28006589 22.06201172 -68.74951172 22.06201172 C-68.74951172 28.99201172 -68.74951172 35.92201172 -68.74951172 43.06201172 C-77.74951172 44.18701172 -77.74951172 44.18701172 -81.90576172 44.15966797 C-82.78232422 44.15644531 -83.65888672 44.15322266 -84.56201172 44.14990234 C-85.89232422 44.13733398 -85.89232422 44.13733398 -87.24951172 44.12451172 C-88.62623047 44.11774414 -88.62623047 44.11774414 -90.03076172 44.11083984 C-92.27041563 44.09917498 -94.50992717 44.08280786 -96.74951172 44.06201172 C-96.73791016 45.18776611 -96.72630859 46.31352051 -96.71435547 47.47338867 C-96.62830499 59.76429358 -97.07937531 71.97904416 -97.74951172 84.24951172 C-97.84631877 86.08998274 -97.9426748 87.93047755 -98.03857422 89.77099609 C-98.27038618 94.2016244 -98.50818971 98.63189164 -98.74951172 103.06201172 C-97.53279785 102.91908691 -96.31608398 102.77616211 -95.0625 102.62890625 C-93.43996191 102.44236716 -91.81740215 102.2560165 -90.19482422 102.06982422 C-89.3960083 101.97548096 -88.59719238 101.8811377 -87.77416992 101.78393555 C-81.41492237 101.06003958 -75.15014618 100.83610697 -68.74951172 101.06201172 C-68.25451172 104.52701172 -68.25451172 104.52701172 -67.74951172 108.06201172 C-67.22164063 107.19189453 -67.22164063 107.19189453 -66.68310547 106.30419922 C-62.40532301 99.53569746 -57.61312245 93.54115525 -49.92529297 90.51904297 C-44.9572263 89.47548139 -39.79477196 89.85716657 -34.74951172 90.06201172 C-35.49201172 90.76326172 -36.23451172 91.46451172 -36.99951172 92.18701172 C-43.58349944 99.07027161 -45.18387426 104.41485085 -45.09326172 113.70263672 C-43.66921247 127.61948168 -35.13044247 138.8780464 -24.68701172 147.49951172 C-8.59474256 159.72857056 10.57802765 162.27495727 30.25048828 161.06201172 C42.41652274 159.26159748 53.91830801 154.2712636 62.25048828 145.06201172 C68.89578003 135.94846875 69.66378262 127.06396454 68.25048828 116.06201172 C64.9446628 105.21513949 57.8402701 97.95776279 48.16064453 92.46826172 C42.40359558 89.68633202 36.38483535 87.80191395 30.25048828 86.06201172 C29.2861084 85.78744141 29.2861084 85.78744141 28.30224609 85.50732422 C18.44510002 82.78266491 8.56598265 81.38889641 -1.57861328 80.20166016 C-45.36279669 74.99751791 -45.36279669 74.99751791 -59.31201172 58.07763672 C-64.41016827 50.92913459 -65.61520322 42.65796253 -64.74951172 34.06201172 C-62.338448 24.01820914 -57.96483152 18.00811335 -49.43701172 12.37451172 C-33.97480415 3.10132699 -17.84123956 0.40238633 0 0 Z " fill="#040404" transform="translate(323.74951171875,167.93798828125)"/>
</svg>
